PathFileType	4	(X/Y/Z)	Patient4_TMGait_0pt6_02_left_36.trc.trc
DataRate	CameraRate	NumFrames	NumMarkers	Units	OrigDataRate	OrigDataStartFrame	OrigNumFrames
79.096045197740	79.096045197740	6	33	mm	79.096045197740	18	       141
Frame#	Time	Sacral			L.Shoulder			Chest			R.Shoulder			Neck			R.ASIS			L.ASIS			R.Thigh.Superior			R.Thigh.Lateral			R.Thigh.Inferior			R.Patella			L.Thigh.Superior			L.Thigh.Lateral			L.Thigh.Inferior			L.Patella			L.Shank.Superior			L.Shank.Lateral			L.Shank.Inferior			R.Shank.Superior			R.Shank.Lateral			R.Shank.Inferior			R.Heel			R.Midfoot.Superior			R.Midfoot.Lateral			R.Toe			L.Heel			L.Midfoot.Lateral			L.Midfoot.Superior			L.Toe			L.Elbow			L.Wrist			R.Elbow			R.Wrist			
		X1	Y1	Z1	X2	Y2	Z2	X3	Y3	Z3	X4	Y4	Z4	X5	Y5	Z5	X6	Y6	Z6	X7	Y7	Z7	X8	Y8	Z8	X9	Y9	Z9	X10	Y10	Z10	X11	Y11	Z11	X12	Y12	Z12	X13	Y13	Z13	X14	Y14	Z14	X15	Y15	Z15	X16	Y16	Z16	X17	Y17	Z17	X18	Y18	Z18	X19	Y19	Z19	X20	Y20	Z20	X21	Y21	Z21	X22	Y22	Z22	X23	Y23	Z23	X24	Y24	Z24	X25	Y25	Z25	X26	Y26	Z26	X27	Y27	Z27	X28	Y28	Z28	X29	Y29	Z29	X30	Y30	Z30	X31	Y31	Z31	X32	Y32	Z32	X33	Y33	Z33	

18	44.104928571429	820.203786844098	1024.551110263228	498.105583139642	1039.673001086184	1418.562111735589	289.716089566507	1146.684211520528	1338.575554457602	441.859822277128	1094.740318471807	1433.736097206785	615.438636083226	1064.888185412681	1482.555568106371	436.000266921719	1045.157831512816	933.299047653498	598.788056059566	1015.139070106135	953.095449946342	324.475749586059	1051.158193110093	724.769405249170	569.522167732022	955.026646771383	631.139605821901	633.677761023120	1015.307299184877	567.327633475822	549.065176170322	1001.146164926375	483.131406085064	553.330370720976	1090.765234152473	788.228890197983	366.107173879363	1060.664584490749	660.290882040905	281.715785941499	1160.507926703334	605.831950433452	353.685023523477	1192.209289683355	537.737273340055	348.327544409262	1171.290988856425	462.180063189776	335.882536278841	1101.613504395832	336.769178847578	277.090530024959	1178.852705814885	231.857929800978	336.278260208780	967.392372937738	398.397965115630	562.011272793485	890.895157740365	300.936130482734	627.463821468338	919.181375011159	203.487182427658	561.210583001090	771.943833276356	43.392491662570	538.205579394743	944.537046796688	96.235632334138	566.875909653024	857.448946609017	36.964904640950	609.929557338036	1065.667397667882	41.185216943116	591.737336528671	1087.172542102986	50.297560388820	365.287611882509	1165.737902727743	58.563829065605	289.979977982396	1233.785849561441	136.965979459156	317.209602384454	1369.419099061223	111.252248172034	298.393855804034	905.419702156669	1080.419023825862	206.254018223835	884.520822863576	821.770899257127	232.935198200969	1200.795520798840	1119.388733980507	739.520639446973	1409.465698702669	1185.124335603005	620.111488661108	
19	44.117571428571	821.201709578784	1023.374519548231	495.646201580980	1039.763693411107	1417.967583866784	287.783715895978	1146.701444204068	1338.045662953695	440.031981023762	1094.332289489620	1433.012537381434	613.457602229573	1064.608079495873	1481.828443570185	434.162678481957	1045.590751146029	932.711236172516	597.160070612901	1016.580636357186	951.545845522489	322.639622080910	1049.539433632216	723.511902761393	568.264130279703	952.355352168352	630.567563887122	632.558378656529	1012.055951324276	566.086164151271	548.219867447195	997.042534827553	481.957222488103	552.459621170077	1091.150927434107	785.488227310603	364.452399918765	1058.644789675652	657.150466175223	280.903906205855	1158.494239447766	602.270994172252	352.005262516759	1188.966306547454	534.539195549158	347.586669008970	1169.080380804966	459.139776737270	335.358789882670	1100.770451709096	332.632384341053	277.522774059226	1179.426390820521	229.012792977879	337.073463477640	962.576046794987	397.485994904655	561.243093328800	885.272889759427	300.824640555773	627.030897944568	912.543851364159	203.017638295944	560.884394728540	764.273955493474	43.359465058684	538.217872544412	936.872542262703	96.170761698252	566.842252522891	849.767399493159	36.898043097276	609.937930428636	1058.008933693016	41.114897517883	591.782198472458	1089.576916860609	47.589391851037	367.343851436993	1167.967581222629	55.481868881533	291.887100079120	1235.838654346192	133.949248910081	318.609134624686	1371.412012248539	108.291404947088	299.856805671039	900.583878404430	1082.222408727803	204.538329611293	878.135028286696	823.653198137646	232.771706966760	1202.712943493008	1118.451339642933	734.098766912849	1407.791720489979	1191.987015172877	613.829991150812	
20	44.130214285714	822.447188946836	1021.906569136072	492.910392505686	1039.861835425356	1417.222316997670	285.638966705574	1146.716515833399	1337.488813011032	438.072305542380	1093.707448832352	1432.206287600976	611.338659522599	1064.190996176489	1481.009053583926	432.110157223225	1046.249012956256	932.012357481625	595.485181916083	1018.413798604816	949.794204499935	320.800859234861	1048.312119637779	722.187759642956	566.944062559817	950.074795674176	629.876657247022	631.313221130699	1009.276871053660	564.753694298785	547.301390483379	993.377933222320	480.619254881488	551.479170851758	1092.038967605887	782.418532806694	362.678380852257	1056.777148210708	653.723958801958	280.240088435071	1156.718708413962	598.381854134860	350.375024224234	1185.644786252257	530.709519551433	346.922642041672	1166.464841485766	455.496537108854	334.866002066545	1098.656933901442	328.347210593911	278.241912065237	1178.206667723584	225.602004526856	337.977117874387	958.104586806707	396.424726415199	560.375920562073	879.901726030351	300.678250689563	626.533969862156	906.040246605495	202.482488775481	560.516702429949	756.609158577954	43.348641794490	538.233619369540	929.218068249169	96.101396332321	566.790055212199	842.099448824078	36.844872845332	609.947865385793	1050.360764338852	41.002458206778	591.829207476588	1088.993097156749	45.281057303766	369.775051039899	1166.968239825417	52.280672715188	293.890040279761	1235.447064415550	130.009544458509	320.038107962551	1370.595263940338	103.167221414423	300.783319562339	896.341818512675	1083.699253505702	202.718693870997	872.563502917259	825.158175867952	232.293921586129	1203.812782507175	1117.164987712076	728.738116538309	1405.655547182937	1197.301530442612	607.867239698356	
21	44.142857142857	823.889872879055	1020.199383393094	489.927246143883	1039.972580008234	1416.349321233215	283.287989889220	1146.742570775137	1336.919391674704	435.978020502941	1092.885421696817	1431.329099623719	609.091265976161	1063.663888770950	1480.119559770466	429.844797008963	1047.123597523596	931.203816409472	593.752112241216	1020.579178484183	947.901981689246	318.965147482612	1047.514339656374	720.807918605723	565.573704261275	948.208566623042	629.082017642391	629.930839695590	1007.007486456541	563.337713088280	546.308495378619	990.187225202363	479.121628507517	550.377723722167	1093.341538033426	779.058880897965	360.775214877701	1055.043953051660	650.114864009901	279.669758908107	1155.136429000129	594.263459106843	348.818627855315	1182.275800519515	526.410609958344	346.349494035033	1163.537688953142	451.410503477792	334.414046819684	1095.547394516161	323.982201289837	279.121455939908	1175.497866348863	221.734781279967	338.949040202696	954.001993843317	395.232708688934	559.406089434042	874.804014880738	300.519520607252	625.965833940462	899.688129292639	201.905221024854	560.108279516167	748.955394986892	43.410003504587	538.262279653235	921.589474608915	96.038253837504	566.722380848196	834.454328135580	36.830499410845	609.961085561040	1042.728216533658	40.841378160816	591.879603011831	1085.840635009855	43.322379385195	372.367313065702	1163.253246633828	49.034476558348	295.866571054949	1233.004044056078	125.323808518750	321.497890388860	1367.454744810385	96.225140460478	301.329469086377	892.775269788676	1084.794324638881	200.785034479990	867.844923742917	826.252976559472	231.500144021486	1204.061478781811	1115.521430354179	723.519723548746	1403.132394639249	1201.073704422626	602.230530719599	
22	44.155500000000	825.461278003001	1018.339984935465	486.743177849068	1040.107304417124	1415.392025363058	280.743106805526	1146.797656955044	1336.363607125134	433.748860344016	1091.907472832003	1430.411470101087	606.725638858420	1063.072322339389	1479.199525477566	427.373774992307	1048.191357817929	930.306597699040	591.940319706244	1022.984400503364	945.963398538000	317.126025219783	1047.160400305590	719.401261444017	564.155019425397	946.767574449554	628.217624410312	628.401339397456	1005.268872333009	561.864277713108	545.236492569552	987.501212022143	477.484123685107	549.150782891215	1094.944544066267	775.505928966018	358.731058779569	1053.440799521884	646.476698603388	279.111483103524	1153.707377968209	590.072467945244	347.337850530105	1178.920618035794	521.876488789450	345.854114502631	1160.426441524512	447.102732641337	333.992775987263	1091.774573545668	319.673179867495	280.008463314257	1171.655410851721	217.603267154805	339.932435787469	950.285850556089	393.946822513511	558.334663684643	869.996892770936	300.389651297388	625.322881499179	893.506130163958	201.328443589474	559.666080558395	741.322260085713	43.616295486824	538.315734160914	914.011974065860	95.998178099267	566.648985005236	826.843135414950	36.889964462191	609.979044958455	1035.118279122246	40.628706447069	591.934969860683	1080.637376287598	41.699963868561	374.898154456372	1157.437039023195	45.878686243730	297.696253610756	1228.949658623201	120.183403006810	322.971854385915	1362.529793306010	88.008281392371	301.658710253335	889.957659254832	1085.480442269435	198.726990372688	864.027586043240	826.926284551018	230.384597458084	1203.429712887906	1113.529809778232	718.526159163608	1400.289886014441	1203.304470952721	596.930060165606	
23	44.168142857143	827.081603321662	1016.445907049043	483.419555007930	1040.281125981761	1414.414044335107	278.023916343334	1146.902376421269	1335.859484344135	431.387611005452	1090.837602672614	1429.503292418536	604.253019853615	1062.476756766798	1478.305275442888	424.711146015089	1049.413622451989	929.363386032366	590.020702100206	1025.508602430131	944.098803960725	315.262004352287	1047.236484452271	718.017284464062	562.674671360193	945.753613401364	627.335733142427	626.717946785843	1004.068620514286	560.380209980582	544.076424586870	985.352553157131	475.742174862919	547.805365252243	1096.720086549517	771.917690007049	356.534667090248	1051.986472427051	643.004247283956	278.466544036539	1152.406237870553	586.015359910380	345.912157545365	1175.668375442282	517.388721229353	345.392396420432	1157.279055423401	442.831803225736	333.570715048437	1087.684118588147	315.606300443075	280.742099370933	1167.042420611752	213.454405233238	340.857461832016	946.973150113344	392.620947458833	557.170370638852	865.495625477308	300.348681966326	624.607207613212	887.517267122910	200.813147470390	559.204701838805	733.724445877105	44.062849783956	538.407276617077	906.521435546870	96.003654507170	566.587105528077	819.279248359875	37.068124580559	610.003144858041	1027.539582653263	40.365781414125	591.996363607840	1073.940339923870	40.417941684381	377.170155993573	1150.159861056983	42.974819775386	299.275557308693	1223.716578230896	114.951662378149	324.417712498556	1356.352002748433	79.194710085054	301.901821115745	887.950504682512	1085.763145213402	196.536561328506	861.164232641826	827.190988585494	228.933170059744	1201.892632809939	1111.221114981655	713.837374370201	1397.190895959101	1203.981086167654	591.981196737258	
